{
	"asset":{
		"generator":"Khronos glTF Blender I/O v4.0.44",
		"version":"2.0"
	},
	"scene":0,
	"scenes":[
		{
			"name":"Scene",
			"nodes":[
				0
			]
		}
	],
	"nodes":[
		{
			"mesh":0,
			"name":"Cube"
		}
	],
	"meshes":[
		{
			"name":"Cube",
			"primitives":[
				{
					"attributes":{
						"POSITION":0,
						"NORMAL":1,
						"TEXCOORD_0":2
					},
					"indices":3
				},
				{
					"attributes":{
						"POSITION":4,
						"NORMAL":5,
						"TEXCOORD_0":6
					},
					"indices":7
				}
			]
		}
	],
	"accessors":[
		{
			"bufferView":0,
			"componentType":5126,
			"count":272,
			"max":[
				2.1000003814697266,
				2.0999999046325684,
				2.1000003814697266
			],
			"min":[
				-2.0999999046325684,
				-2.0999999046325684,
				-2.006911277770996
			],
			"type":"VEC3"
		},
		{
			"bufferView":1,
			"componentType":5126,
			"count":272,
			"type":"VEC3"
		},
		{
			"bufferView":2,
			"componentType":5126,
			"count":272,
			"type":"VEC2"
		},
		{
			"bufferView":3,
			"componentType":5123,
			"count":597,
			"type":"SCALAR"
		},
		{
			"bufferView":4,
			"componentType":5126,
			"count":1400,
			"max":[
				2.0999999046325684,
				2.0999999046325684,
				2.1000003814697266
			],
			"min":[
				-2.0999975204467773,
				-2.0999999046325684,
				-0.5143542289733887
			],
			"type":"VEC3"
		},
		{
			"bufferView":5,
			"componentType":5126,
			"count":1400,
			"type":"VEC3"
		},
		{
			"bufferView":6,
			"componentType":5126,
			"count":1400,
			"type":"VEC2"
		},
		{
			"bufferView":7,
			"componentType":5123,
			"count":2001,
			"type":"SCALAR"
		}
	],
	"bufferViews":[
		{
			"buffer":0,
			"byteLength":3264,
			"byteOffset":0,
			"target":34962
		},
		{
			"buffer":0,
			"byteLength":3264,
			"byteOffset":3264,
			"target":34962
		},
		{
			"buffer":0,
			"byteLength":2176,
			"byteOffset":6528,
			"target":34962
		},
		{
			"buffer":0,
			"byteLength":1194,
			"byteOffset":8704,
			"target":34963
		},
		{
			"buffer":0,
			"byteLength":16800,
			"byteOffset":9900,
			"target":34962
		},
		{
			"buffer":0,
			"byteLength":16800,
			"byteOffset":26700,
			"target":34962
		},
		{
			"buffer":0,
			"byteLength":11200,
			"byteOffset":43500,
			"target":34962
		},
		{
			"buffer":0,
			"byteLength":4002,
			"byteOffset":54700,
			"target":34963
		}
	],
	"buffers":[
		{
			"byteLength":58704,
			"uri":"ao2.bin"
		}
	]
}
