{
    "asset" : {
        "generator" : "Khronos glTF Blender I/O v1.8.19",
        "version" : "2.0"
    },
    "scene" : 0,
    "scenes" : [
        {
            "name" : "Scene",
            "nodes" : [
                0
            ]
        }
    ],
    "nodes" : [
        {
            "mesh" : 0,
            "name" : "Cube",
            "scale" : [
                3,
                3,
                3
            ]
        }
    ],
    "meshes" : [
        {
            "name" : "Cube.004",
            "primitives" : [
                {
                    "attributes" : {
                        "POSITION" : 0,
                        "NORMAL" : 1
                    },
                    "indices" : 2
                }
            ]
        }
    ],
    "accessors" : [
        {
            "bufferView" : 0,
            "componentType" : 5126,
            "count" : 37419,
            "max" : [
                0.9999995231628418,
                0.9999995231628418,
                1.0000017881393433
            ],
            "min" : [
                -1.0000017881393433,
                -1.0000017881393433,
                -0.9999995231628418
            ],
            "type" : "VEC3"
        },
        {
            "bufferView" : 1,
            "componentType" : 5126,
            "count" : 37419,
            "type" : "VEC3"
        },
        {
            "bufferView" : 2,
            "componentType" : 5123,
            "count" : 41634,
            "type" : "SCALAR"
        }
    ],
    "bufferViews" : [
        {
            "buffer" : 0,
            "byteLength" : 449028,
            "byteOffset" : 0
        },
        {
            "buffer" : 0,
            "byteLength" : 449028,
            "byteOffset" : 449028
        },
        {
            "buffer" : 0,
            "byteLength" : 83268,
            "byteOffset" : 898056
        }
    ],
    "buffers" : [
        {
            "byteLength" : 981324,
            "uri" : "ao.bin"
        }
    ]
}
