{
    "asset" : {
        "generator" : "Khronos glTF Blender I/O v1.6.16",
        "version" : "2.0"
    },
    "scene" : 0,
    "scenes" : [
        {
            "name" : "Scene",
            "nodes" : [
                0,
                1,
                2
            ]
        }
    ],
    "nodes" : [
        {
            "mesh" : 0,
            "name" : "Cube"
        },
        {
            "mesh" : 1,
            "name" : "Icosphere"
        },
        {
            "mesh" : 2,
            "name" : "Cylinder"
        }
    ],
    "meshes" : [
        {
            "name" : "Cube",
            "primitives" : [
                {
                    "attributes" : {
                        "POSITION" : 0,
                        "NORMAL" : 1,
                        "TEXCOORD_0" : 2
                    },
                    "indices" : 3
                }
            ]
        },
        {
            "name" : "Icosphere",
            "primitives" : [
                {
                    "attributes" : {
                        "POSITION" : 4,
                        "NORMAL" : 5,
                        "TEXCOORD_0" : 6
                    },
                    "indices" : 7
                }
            ]
        },
        {
            "name" : "Cylinder",
            "primitives" : [
                {
                    "attributes" : {
                        "POSITION" : 8,
                        "NORMAL" : 9,
                        "TEXCOORD_0" : 10
                    },
                    "indices" : 11
                }
            ]
        }
    ],
    "accessors" : [
        {
            "bufferView" : 0,
            "componentType" : 5126,
            "count" : 80,
            "max" : [
                2.7104997634887695,
                2.7104992866516113,
                2.7104997634887695
            ],
            "min" : [
                -2.7104997634887695,
                -2.7104992866516113,
                -2.7104997634887695
            ],
            "type" : "VEC3"
        },
        {
            "bufferView" : 1,
            "componentType" : 5126,
            "count" : 80,
            "type" : "VEC3"
        },
        {
            "bufferView" : 2,
            "componentType" : 5126,
            "count" : 80,
            "type" : "VEC2"
        },
        {
            "bufferView" : 3,
            "componentType" : 5123,
            "count" : 84,
            "type" : "SCALAR"
        },
        {
            "bufferView" : 4,
            "componentType" : 5126,
            "count" : 63,
            "max" : [
                0.1279042363166809,
                -0.6640946865081787,
                2.2960546016693115
            ],
            "min" : [
                -1.7742114067077637,
                -2.6640946865081787,
                0.2960546612739563
            ],
            "type" : "VEC3"
        },
        {
            "bufferView" : 5,
            "componentType" : 5126,
            "count" : 63,
            "type" : "VEC3"
        },
        {
            "bufferView" : 6,
            "componentType" : 5126,
            "count" : 63,
            "type" : "VEC2"
        },
        {
            "bufferView" : 7,
            "componentType" : 5123,
            "count" : 240,
            "type" : "SCALAR"
        },
        {
            "bufferView" : 8,
            "componentType" : 5126,
            "count" : 130,
            "max" : [
                2.112165689468384,
                -0.6198558807373047,
                0.29833847284317017
            ],
            "min" : [
                0.11216574907302856,
                -2.6198558807373047,
                -1.7016615867614746
            ],
            "type" : "VEC3"
        },
        {
            "bufferView" : 9,
            "componentType" : 5126,
            "count" : 130,
            "type" : "VEC3"
        },
        {
            "bufferView" : 10,
            "componentType" : 5126,
            "count" : 130,
            "type" : "VEC2"
        },
        {
            "bufferView" : 11,
            "componentType" : 5123,
            "count" : 372,
            "type" : "SCALAR"
        }
    ],
    "bufferViews" : [
        {
            "buffer" : 0,
            "byteLength" : 960,
            "byteOffset" : 0
        },
        {
            "buffer" : 0,
            "byteLength" : 960,
            "byteOffset" : 960
        },
        {
            "buffer" : 0,
            "byteLength" : 640,
            "byteOffset" : 1920
        },
        {
            "buffer" : 0,
            "byteLength" : 168,
            "byteOffset" : 2560
        },
        {
            "buffer" : 0,
            "byteLength" : 756,
            "byteOffset" : 2728
        },
        {
            "buffer" : 0,
            "byteLength" : 756,
            "byteOffset" : 3484
        },
        {
            "buffer" : 0,
            "byteLength" : 504,
            "byteOffset" : 4240
        },
        {
            "buffer" : 0,
            "byteLength" : 480,
            "byteOffset" : 4744
        },
        {
            "buffer" : 0,
            "byteLength" : 1560,
            "byteOffset" : 5224
        },
        {
            "buffer" : 0,
            "byteLength" : 1560,
            "byteOffset" : 6784
        },
        {
            "buffer" : 0,
            "byteLength" : 1040,
            "byteOffset" : 8344
        },
        {
            "buffer" : 0,
            "byteLength" : 744,
            "byteOffset" : 9384
        }
    ],
    "buffers" : [
        {
            "byteLength" : 10128,
            "uri" : "ao.bin"
        }
    ]
}
