{
    "asset" : {
        "generator" : "Khronos glTF Blender I/O v1.8.19",
        "version" : "2.0"
    },
    "scene" : 0,
    "scenes" : [
        {
            "name" : "Scene",
            "nodes" : [
                0,
                1,
                2
            ]
        }
    ],
    "nodes" : [
        {
            "mesh" : 0,
            "name" : "Cube"
        },
        {
            "mesh" : 1,
            "name" : "Icosphere"
        },
        {
            "mesh" : 2,
            "name" : "Cylinder"
        }
    ],
    "meshes" : [
        {
            "name" : "Cube",
            "primitives" : [
                {
                    "attributes" : {
                        "POSITION" : 0,
                        "NORMAL" : 1,
                        "TEXCOORD_0" : 2
                    },
                    "indices" : 3
                }
            ]
        },
        {
            "name" : "Icosphere",
            "primitives" : [
                {
                    "attributes" : {
                        "POSITION" : 4,
                        "NORMAL" : 5,
                        "TEXCOORD_0" : 6
                    },
                    "indices" : 7
                }
            ]
        },
        {
            "name" : "Cylinder",
            "primitives" : [
                {
                    "attributes" : {
                        "POSITION" : 8,
                        "NORMAL" : 9,
                        "TEXCOORD_0" : 10
                    },
                    "indices" : 11
                }
            ]
        }
    ],
    "accessors" : [
        {
            "bufferView" : 0,
            "componentType" : 5126,
            "count" : 48,
            "max" : [
                2.7104992866516113,
                2.7104992866516113,
                2.7104992866516113
            ],
            "min" : [
                -2.7104992866516113,
                -2.7104992866516113,
                -2.7104992866516113
            ],
            "type" : "VEC3"
        },
        {
            "bufferView" : 1,
            "componentType" : 5126,
            "count" : 48,
            "type" : "VEC3"
        },
        {
            "bufferView" : 2,
            "componentType" : 5126,
            "count" : 48,
            "type" : "VEC2"
        },
        {
            "bufferView" : 3,
            "componentType" : 5123,
            "count" : 84,
            "type" : "SCALAR"
        },
        {
            "bufferView" : 4,
            "componentType" : 5126,
            "count" : 240,
            "max" : [
                0.1279042363166809,
                -0.6640946865081787,
                2.2960546016693115
            ],
            "min" : [
                -1.7742114067077637,
                -2.6640946865081787,
                0.2960546612739563
            ],
            "type" : "VEC3"
        },
        {
            "bufferView" : 5,
            "componentType" : 5126,
            "count" : 240,
            "type" : "VEC3"
        },
        {
            "bufferView" : 6,
            "componentType" : 5126,
            "count" : 240,
            "type" : "VEC2"
        },
        {
            "bufferView" : 7,
            "componentType" : 5123,
            "count" : 240,
            "type" : "SCALAR"
        },
        {
            "bufferView" : 8,
            "componentType" : 5126,
            "count" : 192,
            "max" : [
                1.580859661102295,
                -0.6198558807373047,
                -0.6649878025054932
            ],
            "min" : [
                -0.4191403388977051,
                -2.6198558807373047,
                -2.664987802505493
            ],
            "type" : "VEC3"
        },
        {
            "bufferView" : 9,
            "componentType" : 5126,
            "count" : 192,
            "type" : "VEC3"
        },
        {
            "bufferView" : 10,
            "componentType" : 5126,
            "count" : 192,
            "type" : "VEC2"
        },
        {
            "bufferView" : 11,
            "componentType" : 5123,
            "count" : 372,
            "type" : "SCALAR"
        }
    ],
    "bufferViews" : [
        {
            "buffer" : 0,
            "byteLength" : 576,
            "byteOffset" : 0
        },
        {
            "buffer" : 0,
            "byteLength" : 576,
            "byteOffset" : 576
        },
        {
            "buffer" : 0,
            "byteLength" : 384,
            "byteOffset" : 1152
        },
        {
            "buffer" : 0,
            "byteLength" : 168,
            "byteOffset" : 1536
        },
        {
            "buffer" : 0,
            "byteLength" : 2880,
            "byteOffset" : 1704
        },
        {
            "buffer" : 0,
            "byteLength" : 2880,
            "byteOffset" : 4584
        },
        {
            "buffer" : 0,
            "byteLength" : 1920,
            "byteOffset" : 7464
        },
        {
            "buffer" : 0,
            "byteLength" : 480,
            "byteOffset" : 9384
        },
        {
            "buffer" : 0,
            "byteLength" : 2304,
            "byteOffset" : 9864
        },
        {
            "buffer" : 0,
            "byteLength" : 2304,
            "byteOffset" : 12168
        },
        {
            "buffer" : 0,
            "byteLength" : 1536,
            "byteOffset" : 14472
        },
        {
            "buffer" : 0,
            "byteLength" : 744,
            "byteOffset" : 16008
        }
    ],
    "buffers" : [
        {
            "byteLength" : 16752,
            "uri" : "ao.bin"
        }
    ]
}
